<?xml version="1.0" encoding="utf-8"?>
<!-- Generator: Adobe Illustrator 19.2.1, SVG Export Plug-In . SVG Version: 6.00 Build 0)  -->
<svg version="1.1" id="layer" xmlns="http://www.w3.org/2000/svg" xmlns:xlink="http://www.w3.org/1999/xlink" x="0px" y="0px"
	 viewBox="0 0 652 652" style="enable-background:new 0 0 652 652;" xml:space="preserve">
<style type="text/css">
	.st0{fill:#EB008B;}
	.st1{fill:#231161;}
	.st2{fill:#8D85CA;}
	.st3{fill:#FF4338;}
	.st4{fill:#00B09A;}
	.st5{fill:#8C189B;}
	.st6{fill:#00ADEE;}
	.st7{fill:#004987;}
	.st8{fill:#B00060;}
</style>
<polygon class="st0" points="338.4,195.6 245.5,288.1 302.8,345.1 347,301 393,346.8 441.7,298.4 "/>
<polygon class="st1" points="27.9,387.6 26.3,399.3 44.6,399.3 36.7,454.3 49.7,454.3 57.5,399.3 76.1,399.3 77.7,387.6 "/>
<path class="st1" d="M80,404.4l-7.1,49.9h12.2l7.1-49.9H80z M82.4,387.6l-1.7,11.9h12.3l1.7-11.9H82.4z"/>
<g>
	<path class="st1" d="M111.7,438.8c-0.7,4.3,2.1,5.9,5.7,5.9c2.6,0.1,5.2-1.1,7.6-2.2h1.5l-1.4,10.7c-3.8,1.2-6.7,2.2-10.6,2.2
		c-11.9,0-16.4-6.9-14.6-18.7l7.4-52.1h12.2L111.7,438.8z"/>
	<path class="st1" d="M142.7,424.1h20.4c0.4-6.3-2.3-10.2-8.4-10.3C148.3,413.8,144.1,418.4,142.7,424.1 M155.1,445.1
		c4.3-0.1,9.3-0.8,13.7-3.1h1.5l-1.6,11.3c-5.6,1.6-10.3,2.1-16,2.1c-7.1,0-14.3-2.4-19-7.2c-3.9-4.1-5.7-11.1-5.3-16.4
		c0.6-8.4,2.9-14.5,8.2-20.5c4.8-5.3,11.7-7.9,19-7.9c9.1,0,16.2,4.7,18.5,13.1c1.6,6.1,0.9,11.6-0.2,17.7h-32.8
		C141.3,442.1,148.1,445.3,155.1,445.1"/>
	<path class="st1" d="M257.6,412.7l-11.8,41.6h-17.1l-12.6-41.6l-1.5,41.6H200l3.3-57.7c0.5-5.2,6-9.6,11.4-9.6c5.7,0,10.6,3,12,7.6
		l12,40.4l11.2-40.4c1.5-5.5,6.5-7.7,11.7-7.7c5.9,0.1,10.5,4.2,10.9,10.1l3.3,57.4h-16.3L257.6,412.7z"/>
	<path class="st1" d="M320.1,428.9c-0.1-6.1-2.5-13.5-9.5-13.5c-7.2,0-9.3,8-9.5,13.5c-0.3,5.7,1.8,14.8,8.8,14.8
		C318.1,443.7,320.4,435.4,320.1,428.9 M335.9,429.2c0,16.3-10.1,26.2-26,26.2c-15.6,0-24.7-12.5-24.5-26.1
		c0-15.2,10.3-25.8,25.3-25.8C326.3,403.5,335.9,414.8,335.9,429.2"/>
	<path class="st1" d="M374.9,450.5c-3.4,3.5-9,4.6-11.6,4.6c-12,0-19-7.3-19.5-18.7v-32h15.3v32.3c0,3.1,1.7,6.8,6,6.8
		c2.8,0,7.5-1.5,9.4-2.8v-36.3h15.3v49.9h-14.9C374.9,454.3,374.9,450.5,374.9,450.5z"/>
	<path class="st1" d="M417.7,408.2c3.4-3.5,9-4.6,11.6-4.6c12,0,19,7.3,19.5,18.7v32h-15.3V422c0-3.1-1.7-6.8-6-6.8
		c-2.8,0-7.5,1.5-9.4,2.8v36.3h-15.3v-49.9h14.9C417.7,404.4,417.7,408.2,417.7,408.2z"/>
	<path class="st1" d="M476.6,416.8v21.7c0,3.4,3,5,5.7,5c3.3,0,6.2-1.4,7.8-2.2h1.9v12c-4.2,1.1-7.9,2.1-12.1,2.1
		c-4.4-0.2-9.9-0.9-13.3-3.7c-4.1-3.6-5.4-8.6-5.4-13.8v-21.1h-5.2v-12.4h5.2v-10.9h15.3v10.9h12.4v12.4H476.6z"/>
	<path class="st1" d="M515.2,444c3.2,0.1,6.2-1.4,9.1-3.1v-9.5l-9.1,1.6c-3.1,0.6-5.7,1.9-5.4,5.9C509.8,442.9,512.4,444,515.2,444
		 M524.4,450.8c-3,3.3-7.9,4.7-12.1,4.7c-10,0-17.9-6.9-17.9-16.7c0.2-8.9,6.4-14.3,15.4-15.5c4.4-0.9,9.9-1.2,14.4-2
		c0-3.4-5.5-6.3-10.5-6.3c-4.4,0-9.4,1.3-13.1,3.1h-2v-11.6c5.5-1.6,10.7-2.9,16.5-2.9c12.6,0,24.1,4.2,24.5,17.6v33.2h-15.2
		C524.4,454.3,524.4,450.8,524.4,450.8z"/>
</g>
<path class="st1" d="M552,454.3h15.3v-49.9H552V454.3z M552,400h15.3v-12.4H552V400z"/>
<g>
	<path class="st1" d="M595.2,408.2c3.4-3.5,9-4.6,11.6-4.6c12,0,19,7.3,19.5,18.7v32H611V422c0-3.1-1.7-6.8-6-6.8
		c-2.8,0-7.5,1.5-9.4,2.8v36.3h-15.3v-49.9h14.9V408.2z"/>
</g>
<polygon class="st2" points="472.3,272.8 446.6,298.4 507.4,358.8 514,358.8 536.3,336.6 "/>
<polygon class="st3" points="606.8,358.8 562.9,315.1 541.3,336.6 563.6,358.8 "/>
<polygon class="st3" points="538.8,339.1 518.9,358.8 558.7,358.8 "/>
<polygon class="st4" points="90.8,315.1 46.9,358.8 75,358.8 104.9,329.1 "/>
<polygon class="st5" points="444.2,300.8 385.9,358.8 502.5,358.8 "/>
<polygon class="st6" points="195.8,243.6 109.8,329.1 139.7,358.8 169.5,358.8 240.5,288.1 "/>
<polygon class="st4" points="107.4,331.6 80,358.8 134.8,358.8 "/>
<polygon class="st7" points="243,290.6 174.4,358.8 311.6,358.8 "/>
<polygon class="st8" points="347,306.5 305.4,348 316.4,358.8 380.7,358.8 390.2,349.4 "/>
</svg>
